<?xml version="1.0" standalone="no"?><!DOCTYPE svg PUBLIC "-//W3C//DTD SVG 1.1//EN" "http://www.w3.org/Graphics/SVG/1.1/DTD/svg11.dtd"><svg t="1776442490079" class="icon" viewBox="0 0 1024 1024" version="1.1" xmlns="http://www.w3.org/2000/svg" p-id="7933" xmlns:xlink="http://www.w3.org/1999/xlink" width="200" height="200"><path d="M512 471.272727a110.545455 110.545455 0 1 0 0-221.090909 110.545455 110.545455 0 0 0 0 221.090909z m0-162.909091a52.363636 52.363636 0 1 1 0 104.727273 52.363636 52.363636 0 0 1 0-104.727273z m-23.272727 244.363637c-50.478545 0-93.393455 15.732364-128.791273 47.173818-34.373818 30.580364-51.572364 67.211636-51.572364 109.917091a29.090909 29.090909 0 0 1-58.181818 0c0-29.626182 6.423273-57.949091 19.269818-84.968727a213.946182 213.946182 0 0 1 51.828364-68.421819C367.709091 515.165091 423.517091 494.545455 488.727273 494.545455a29.090909 29.090909 0 0 1 0 58.181818z m139.636363 203.636363a128 128 0 1 0 0-256 128 128 0 0 0 0 256z m0-209.454545a81.454545 81.454545 0 1 1 0 162.909091 81.454545 81.454545 0 0 1 0-162.909091z m23.389091 54.528a7.307636 7.307636 0 0 1-5.026909-3.653818l-11.962182-21.783273a7.307636 7.307636 0 0 0-12.8 0l-11.985454 21.783273a7.307636 7.307636 0 0 1-5.026909 3.653818l-24.413091 4.654545a7.307636 7.307636 0 0 0-3.956364 12.194909l17.012364 18.106182a7.307636 7.307636 0 0 1 1.931636 5.911273l-3.118545 24.669091a7.307636 7.307636 0 0 0 10.356363 7.517091l22.481455-10.589091a7.307636 7.307636 0 0 1 6.213818 0l22.481455 10.589091a7.307636 7.307636 0 0 0 10.356363-7.540364l-3.095272-24.645818a7.307636 7.307636 0 0 1 1.908363-5.911273l17.012364-18.106182a7.307636 7.307636 0 0 0-3.956364-12.194909l-24.413091-4.654545z" fill="#333333" p-id="7934"></path></svg>