<?xml version="1.0" standalone="no"?><!DOCTYPE svg PUBLIC "-//W3C//DTD SVG 1.1//EN" "http://www.w3.org/Graphics/SVG/1.1/DTD/svg11.dtd"><svg t="1776442470372" class="icon" viewBox="0 0 1093 1024" version="1.1" xmlns="http://www.w3.org/2000/svg" p-id="6325" xmlns:xlink="http://www.w3.org/1999/xlink" width="213.4765625" height="200"><path d="M751.16441 635.054298v-212.425532c0-13.529872-4.793191-25.098894-14.357787-34.641702-9.564596-9.586383-21.133617-14.379574-34.66349-14.379575h-98.042553V348.595745c0-13.55166-4.793191-25.098894-14.357787-34.66349-9.564596-9.586383-21.133617-14.357787-34.663489-14.357787h-176.912341c-3.70383-16.296851-15.534298-24.467064-35.426042-24.510638h-28.672c-24.467064 0.065362-36.711489 12.288-36.776851 36.689702v400.405787c0 24.510638 12.266213 36.776851 36.776851 36.776851h28.584851c24.445277-0.065362 36.689702-12.288 36.776851-36.667915V610.042553h61.265702v25.011745c0 32.680851 16.340426 49.021277 49.021277 49.021276h212.425531c32.680851 0 49.021277-16.340426 49.021277-49.021276z m-65.361702-196.085107v179.744681h-179.744681V544.680851h-163.404255v-179.744681h196.085106v74.033021h147.06383z" fill="#333333" p-id="6326"></path></svg>