<?xml version="1.0" standalone="no"?><!DOCTYPE svg PUBLIC "-//W3C//DTD SVG 1.1//EN" "http://www.w3.org/Graphics/SVG/1.1/DTD/svg11.dtd"><svg t="1776442505186" class="icon" viewBox="0 0 1024 1024" version="1.1" xmlns="http://www.w3.org/2000/svg" p-id="8895" xmlns:xlink="http://www.w3.org/1999/xlink" width="200" height="200"><path d="M753.570909 483.770182l-96.372364-166.935273a56.32 56.32 0 0 0-48.98909-28.253091h-192.628364c-20.247273 0-38.772364 10.868364-48.989091 28.253091l-96.232727 166.935273a56.669091 56.669091 0 0 0 0 56.482909l96.395636 166.935273a56.296727 56.296727 0 0 0 48.989091 28.229818h192.768c20.270545 0 38.935273-10.845091 48.989091-28.229818l96.395636-166.935273a56.669091 56.669091 0 0 0 0-56.482909h-0.325818zM512 612.235636A100.189091 100.189091 0 0 1 411.741091 512 100.189091 100.189091 0 0 1 512 411.787636 100.189091 100.189091 0 0 1 612.189091 512a100.189091 100.189091 0 0 1-100.212364 100.235636z" fill="#333333" p-id="8896"></path></svg>